<svg fill="none" height="136" viewBox="0 0 226 136" width="226" xmlns="http://www.w3.org/2000/svg" xmlns:xlink="http://www.w3.org/1999/xlink"><linearGradient id="a" gradientUnits="userSpaceOnUse" x1="225.12" x2=".765223" y1="8.69756" y2="8.69756"><stop offset="0" stop-color="#9d68c2"/><stop offset="1" stop-color="#aec2ff"/></linearGradient><linearGradient id="b"><stop offset="0" stop-color="#ccedff"/><stop offset="1" stop-color="#9d68c2"/></linearGradient><linearGradient id="c" gradientUnits="userSpaceOnUse" x1="179.479" x2="179.479" xlink:href="#b" y1="93.4424" y2="25.7659"/><linearGradient id="d" gradientUnits="userSpaceOnUse" x1="64.0953" x2="64.0953" xlink:href="#b" y1="60.4463" y2="30.6438"/><linearGradient id="e" gradientUnits="userSpaceOnUse" x1="28.9201" x2="28.9201" xlink:href="#b" y1="60.4463" y2="30.6438"/><linearGradient id="f" gradientUnits="userSpaceOnUse" x1="99.8407" x2="99.8407" xlink:href="#b" y1="60.4463" y2="30.6438"/><path d="m225.285 10.8134-4.08 116.3206c-.076 2.22-1.012 4.323-2.611 5.865-1.598 1.542-3.734 2.402-5.955 2.397h-200.3941c-2.237.001-4.38558-.874-5.98626-2.437-1.60068-1.562-2.52645-3.689-2.5794-5.926l-2.774981-117.67676c-.027156-1.14609.176021-2.28597.597501-3.35208.42148-1.06612 1.05268-2.03679 1.85619-2.85448s1.76299-1.46577 2.82157-1.90583c1.05858-.440056 2.19473-.663144 3.34111-.656039l207.26237 1.355809c1.145.00775 2.277.24522 3.33.69835 1.052.45313 2.002 1.11272 2.795 1.93973s1.412 1.80464 1.82 2.87504c.408 1.07039.598 2.2118.557 3.35666z" fill="#d26df7" opacity=".6"/><path d="m3.37538 127.046-2.787648-117.67664c-.034709-1.18853.171979-2.37175.607558-3.47813.43559-1.10638 1.09102-2.11294 1.92667-2.95881.82852-.83924 1.8148-1.50639 2.9021-1.963052 1.0873-.456667 2.25417-.693844 3.43347-.697884l207.32547 1.355816c1.193-.00083 2.374.23904 3.472.70525 1.098.4662 2.091 1.14917 2.919 2.00802s1.474 1.87593 1.9 2.99038.623 2.30337.579 3.49555l-4.081 116.3215c-.078 2.299-1.048 4.478-2.703 6.076s-3.866 2.491-6.166 2.489h-200.4578c-2.31773.001-4.54361-.906-6.20131-2.526-1.6577-1.619-2.61553-3.824-2.66851-6.141zm.19007-123.67009c-.77324.78774-1.37944 1.72352-1.78225 2.75123s-.59394 2.12618-.56191 3.22955l2.80032 117.67731c.06541 2.143.95827 4.179 2.49137 5.679 1.53311 1.5 3.58742 2.348 5.73222 2.367h200.3938c2.141.011 4.202-.815 5.743-2.302 1.541-1.486 2.44-3.516 2.506-5.656l4.08-116.3208c.039-1.10223-.143-2.20107-.536-3.23156s-.989-1.9717-1.752-2.76794-1.678-1.43135-2.691-1.86777-2.103-.6653-3.206-.67308l-207.26212-1.355809c-1.10601-.010328-2.20268.203259-3.22398.627889-1.0213.42464-1.94612 1.05154-2.71878 1.84298z" fill="#9b4ca2"/><path d="m224.994 16.7437h-223.86131l-.291435-6.1328c-.074569-1.28403.115108-2.5697.557305-3.77749.44219-1.2078 1.12749-2.31201 2.01351-3.24436.88603-.93234 1.95392-1.67298 3.13763-2.17609 1.18371-.503112 2.45806-.758004 3.7442-.748906l207.1731 1.634576c1.023.0165 2.032.23454 2.971.64164.938.40711 1.787.99529 2.498 1.73088s1.27 1.60414 1.645 2.55596c.375.95181.558 1.9682.539 2.99099z" fill="url(#a)" opacity=".6"/><path d="m213.742 26.1207v67.3217h-68.526v-67.6765z" fill="url(#c)" opacity=".3"/><path d="m49.1941 60.4463h29.8025v-29.8025h-29.8025z" fill="url(#d)" opacity=".3"/><path d="m14.0315 60.4463h29.8025v-29.8025h-29.8025z" fill="url(#e)" opacity=".3"/><path d="m84.9394 60.4463h29.8026v-29.8025h-29.8026z" fill="url(#f)" opacity=".3"/><g fill="#d1d4fb"><path d="m14.0316 84.9653h76.2169v-7.1338h-76.2169z"/><path d="m14.0316 90.9084h95.2874v-2.2047h-95.2874z"/><path d="m90.1725 66.4526h18.2335v-2.2047h-18.2335z"/><path d="m54.9723 66.4526h18.2338v-2.2047h-18.2338z"/><path d="m19.8097 66.4526h18.2338v-2.2047h-18.2338z"/><path d="m84.1034 94.4944h30.6516v-2.2048h-30.6516z"/><path d="m14.0316 98.0293h95.2874v-2.2048h-95.2874z"/><path d="m14.032 101.59h100.723v-2.2052h-100.723z"/><path d="m14.032 105.138h100.723v-2.205h-100.723z"/><path d="m14.0316 119.482h95.2874v-2.205h-95.2874z"/><path d="m14.032 123.042h100.723v-2.205h-100.723z"/><path d="m14.032 126.59h100.723v-2.205h-100.723z"/><path d="m18.0741 108.686h96.6809v-2.205h-96.6809z"/><path d="m14.0316 112.234h95.2874v-2.205h-95.2874z"/><path d="m33.1401 115.781h81.6149v-2.204h-81.6149z"/></g><path d="m175.044 60.4469c-.003-3.8574 1.139-7.629 3.28-10.8376 2.141-3.2085 5.186-5.71 8.749-7.1879s7.485-1.8659 11.268-1.1149c3.784.751 7.26 2.6073 9.988 5.3341 2.729 2.7267 4.587 6.2014 5.341 9.9845.753 3.7832.368 7.7048-1.108 11.2689-1.475 3.564-3.975 6.6104-7.182 8.7538-3.207 2.1433-6.978 3.2873-10.835 3.2873-5.169-.0033-10.125-2.0572-13.781-5.7109-3.656-3.6536-5.714-8.6085-5.72-13.7773zm1.267 0c-.003 3.6069 1.065 7.1334 3.067 10.1336s4.848 5.3392 8.18 6.7213c3.332 1.382 6.998 1.7449 10.536 1.0427 3.538-.7021 6.788-2.4377 9.339-4.9872 2.552-2.5495 4.289-5.7985 4.994-9.3358.705-3.5374.344-7.2042-1.035-10.5367-1.38-3.3326-3.717-6.181-6.716-8.1852-2.999-2.0041-6.525-3.0738-10.131-3.0738-4.833.0034-9.467 1.9238-12.885 5.3398-3.419 3.416-5.342 8.0487-5.349 12.8813z" fill="#e0ffff"/><path d="m194.545 71.0394c5.85 0 10.593-4.7427 10.593-10.5931 0-5.8503-4.743-10.593-10.593-10.593-5.851 0-10.593 4.7427-10.593 10.593 0 5.8504 4.742 10.5931 10.593 10.5931z" fill="#fff"/><path d="m125.728 25.7656c.003-3.8539 1.148-7.6205 3.291-10.8236 2.142-3.2032 5.187-5.69906 8.748-7.17213 3.561-1.47308 7.479-1.8572 11.259-1.10382 3.779.75339 7.251 2.61047 9.975 5.33645 2.724 2.726 4.579 6.1985 5.33 9.9785s.364 7.6977-1.111 11.258c-1.476 3.5603-3.973 6.6032-7.178 8.744s-6.972 3.2835-10.826 3.2835c-5.168-.0067-10.123-2.0638-13.777-5.7199-3.654-3.656-5.708-8.6123-5.711-13.781zm1.267 0c0 3.6038 1.069 7.1267 3.071 10.1231s4.848 5.3319 8.177 6.711c3.33 1.3791 6.993 1.74 10.528 1.0369s6.781-2.4385 9.33-4.9867c2.548-2.5483 4.283-5.795 4.986-9.3295.703-3.5346.342-7.1982-1.037-10.5277s-3.714-6.1752-6.711-8.1774c-2.996-2.00215-6.519-3.07081-10.123-3.07081-4.83.00671-9.461 1.92858-12.877 5.34421-3.415 3.4157-5.337 8.0464-5.344 12.8769z" fill="#e0ffff"/><path d="m146.838 35.6131c5.434-.8967 9.113-6.0287 8.216-11.4627-.897-5.4341-6.029-9.1123-11.463-8.2156s-9.112 6.0287-8.215 11.4627c.896 5.434 6.028 9.1122 11.462 8.2156z" fill="#fff"/><path d="m217.15 7.60817-1.419-2.16676-7.704 6.75369 1.178 1.6473z" fill="#fff"/><path d="m207.824 7.60841 1.419-2.16676 7.704 6.75375-1.178 1.6472z" fill="#fff"/><path d="m6.55566 10.3699h68.98174v-3.45925h-68.98174z" fill="#fff"/></svg>