<svg fill="none" height="44" viewBox="0 0 81 44" width="81" xmlns="http://www.w3.org/2000/svg" xmlns:xlink="http://www.w3.org/1999/xlink"><linearGradient id="a" gradientUnits="userSpaceOnUse" x1="58.6984" x2="44.3293" y1="48.0718" y2="-5.24833"><stop offset="0" stop-color="#188dc1"/><stop offset="1" stop-color="#06bfe7"/></linearGradient><linearGradient id="b" gradientUnits="userSpaceOnUse" x1="83.3691" x2="72.6621" y1="41.9263" y2="2.16427"><stop offset="0" stop-color="#1852a0"/><stop offset="1" stop-color="#067ed3"/></linearGradient><path clip-rule="evenodd" d="m76.5774 43.2568 1.8246-42.638392h-55.8417l2.3061 42.524392z" fill="url(#a)" fill-rule="evenodd"/><path clip-rule="evenodd" d="m78.402.618408 1.6726 2.508882-1.6726 40.12951h-1.8246z" fill="url(#b)" fill-rule="evenodd"/><path d="m59.864 9.13322 8.7684-.93766-1.2037 29.21964-7.5647-.7476v-3.0157l4.3842.1014.4942-22.542-4.8784.1394z" fill="#fff"/><path d="m41.9218 9.13322-8.7685-.93766 1.2038 29.21964 7.5647-.7476v-3.0157l-4.3843.1014-.5068-22.542 4.8911.1394z" fill="#fff"/><path d="m13.4498 26.8859.4815-.4182-13.139986-14.9899-.4815.4181z" fill="#744ca2"/></svg>