<svg fill="none" height="15" viewBox="0 0 15 15" width="15" xmlns="http://www.w3.org/2000/svg" xmlns:xlink="http://www.w3.org/1999/xlink"><linearGradient id="a" gradientUnits="userSpaceOnUse" x1="7.04178" x2="7.04178" y1="14.8264" y2=".723389"><stop offset="0" stop-color="#459fff"/><stop offset="1" stop-color="#a96dff"/></linearGradient><path d="m.0219727 7.76854c0 1.3934.4132083 2.75556 1.1873373 3.91406.77413 1.1586 1.87442 2.0616 3.16176 2.5948 1.28733.5333 2.70389.6728 4.07051.4009 1.36663-.2718 2.62192-.9428 3.60722-1.9281s1.6563-2.2406 1.9281-3.60722c.2718-1.36663.1323-2.78317-.4009-4.0705s-1.4362-2.38764-2.5948-3.16177c-1.15858-.77413-2.52068-1.187321-3.91408-1.187321-1.86849 0-3.66046.742261-4.98168 2.063491-1.321221 1.32122-2.0634673 3.11317-2.0634673 4.98166z" fill="url(#a)"/></svg>