<svg fill="none" height="17" viewBox="0 0 18 17" width="18" xmlns="http://www.w3.org/2000/svg"><path d="m16.6231 16.9649c-2.0098 0-3.9688-.448-5.877-1.3442-1.90881-.8955-3.5992-2.0796-5.07117-3.5521-1.47258-1.472-2.65664-3.1624-3.55215-5.07121-.89614-1.9082-1.344216-3.86718-1.344216-5.87696 0-.28043.093478-.514125.280436-.70108.18695-.186956.42065-.280434.70108-.280434h3.78585c.21812 0 .41287.070108.58424.210325.17138.140217.27264.319383.3038.537498l.60761 3.271721c.03116.21812.02742.4166-.01122.59546-.03926.17947-.129.33932-.26921.47954l-2.26684 2.29021c.65434 1.12173 1.47633 2.17336 2.46594 3.15483.989.9816 2.07552 1.8307 3.25955 2.5473l2.1968-2.1967c.1402-.1402.3234-.2455.5496-.316.2256-.0698.4475-.0891.6656-.0579l3.225.6543c.2181.0468.3972.1518.5375.315.1402.1639.2103.3549.2103.5731v3.7858c0 .2804-.0935.5141-.2805.7011-.1869.187-.4206.2804-.701.2804zm-13.01683-11.21731 1.54238-1.54239-.39728-2.19673h-2.07988c.0779.63877.18696 1.26974.32717 1.89293.14022.62319.34276 1.23858.60761 1.84619zm12.12873 9.30101v-2.0565l-2.1967-.444-1.5658 1.5658c.6076.2648 1.2271.4751 1.8584.6309.6306.1558 1.2654.2571 1.9041.3038z" fill="#1c64f2"/></svg>