<svg fill="none" height="61" viewBox="0 0 44 61" width="44" xmlns="http://www.w3.org/2000/svg" xmlns:xlink="http://www.w3.org/1999/xlink"><clipPath id="a"><path d="m.725708.254883h42.5485v60h-42.5485z"/></clipPath><g clip-path="url(#a)"><path d="m21.974 60.1034-17.31554-4.807-3.858777-43.2798h42.400517l-3.8627 43.2731z" fill="#264de4"/><path d="m36.0305 52.5341 3.3009-36.9789h-17.3314v40.8686z" fill="#2965f1"/><path d="m9.64571 31.6072.47569 5.3081h11.8785v-5.3081zm-.95601-10.7437.48249 5.3081h12.82771v-5.3081zm13.3102 24.5294-.0233.0061-5.9116-1.5962-.3779-4.2334h-5.3285l.7436 8.3345 10.8733 3.0183.0244-.0066z" fill="#ebebeb"/><path d="m10.7784.254883h6.4289v2.688527h-3.7403v2.68854h3.7406v2.68836h-6.4292zm7.7148 0h6.429v2.337837h-3.7405v.46754h3.7405v5.37706h-6.4289v-2.45501h3.7405v-.46754h-3.7408zm7.7149 0h6.429v2.337837h-3.7405v.46754h3.7405v5.37706h-6.429v-2.45501h3.7404v-.46754h-3.7402z" fill="#000"/><path d="m34.3202 31.6072.9581-10.7437h-13.2967v5.3081h7.4796l-.483 5.4356h-6.9966v5.3081h6.5364l-.6163 6.8842-5.9203 1.5979v5.5223l10.882-3.0158.0798-.8968 1.2475-13.9745z" fill="#fff"/></g></svg>