<svg width="60" height="61" viewBox="0 0 60 61" fill="none" xmlns="http://www.w3.org/2000/svg">
<path d="M30 5.25488C26.717 5.25488 23.4661 5.90153 20.4329 7.15789C17.3998 8.41426 14.6438 10.2557 12.3223 12.5772C7.63392 17.2656 5 23.6245 5 30.2549C5 41.3049 12.175 50.6799 22.1 54.0049C23.35 54.2049 23.75 53.4299 23.75 52.7549V48.5299C16.825 50.0299 15.35 45.1799 15.35 45.1799C14.2 42.2799 12.575 41.5049 12.575 41.5049C10.3 39.9549 12.75 40.0049 12.75 40.0049C15.25 40.1799 16.575 42.5799 16.575 42.5799C18.75 46.3799 22.425 45.2549 23.85 44.6549C24.075 43.0299 24.725 41.9299 25.425 41.3049C19.875 40.6799 14.05 38.5299 14.05 29.0049C14.05 26.2299 15 24.0049 16.625 22.2299C16.375 21.6049 15.5 19.0049 16.875 15.6299C16.875 15.6299 18.975 14.9549 23.75 18.1799C25.725 17.6299 27.875 17.3549 30 17.3549C32.125 17.3549 34.275 17.6299 36.25 18.1799C41.025 14.9549 43.125 15.6299 43.125 15.6299C44.5 19.0049 43.625 21.6049 43.375 22.2299C45 24.0049 45.95 26.2299 45.95 29.0049C45.95 38.5549 40.1 40.6549 34.525 41.2799C35.425 42.0549 36.25 43.5799 36.25 45.9049V52.7549C36.25 53.4299 36.65 54.2299 37.925 54.0049C47.85 50.6549 55 41.3049 55 30.2549C55 26.9718 54.3534 23.7209 53.097 20.6878C51.8406 17.6547 49.9991 14.8987 47.6777 12.5772C45.3562 10.2557 42.6002 8.41426 39.5671 7.15789C36.5339 5.90153 33.283 5.25488 30 5.25488Z" fill="black"/>
</svg>
