<svg fill="none" height="61" viewBox="0 0 44 61" width="44" xmlns="http://www.w3.org/2000/svg" xmlns:xlink="http://www.w3.org/1999/xlink"><clipPath id="a"><path d="m.613892.254883h42.7723v60h-42.7723z"/></clipPath><g clip-path="url(#a)"><path d="m43.3118 12.0166-3.8831 43.2731-17.4547 4.8137-17.40669-4.807-3.879078-43.2798z" fill="#e44d26"/><path d="m22 56.4238 14.1043-3.8897 3.3182-36.9789h-17.4225z" fill="#f16529"/><path d="m14.4514 26.1716h7.5487v-5.3081h-13.38023l.12765 1.4241 1.31158 14.6277h11.941v-5.3081h-7.061zm1.2027 13.3978h-5.3566l.7475 8.3345 10.9305 3.0183.0246-.0066v-5.5227l-.0234.0061-5.9427-1.5962z" fill="#ebebeb"/><path d="m4.65381.254883h2.71169v2.665097h2.48063v-2.665097h2.71187v8.070577h-2.7117v-2.70249h-2.48063v2.70249h-2.71169zm11.46999 2.676397h-2.3869v-2.676397h7.4875v2.676397h-2.3884v5.39418h-2.7117v-5.39418zm6.2889-2.676397h2.8274l1.7393 2.835787 1.7377-2.835787h2.8286v8.070577h-2.7007v-4.00022l-1.8656 2.86953h-.0468l-1.8667-2.86953v4.00022h-2.6532zm10.4825 0h2.7125v5.402987h3.8135v2.66759h-6.5262z" fill="#000"/><path d="m21.9816 36.9153h6.5707l-.6195 6.8842-5.9514 1.5979v5.5223l10.9392-3.0158.0802-.8968 1.2541-13.9745.1302-1.4254h-12.4035zm0-10.7566v.0129h12.889l.1069-1.193.2433-2.691.1275-1.4241h-13.3667z" fill="#fff"/></g></svg>