<svg width="60" height="61" viewBox="0 0 60 61" fill="none" xmlns="http://www.w3.org/2000/svg">
<path d="M0 0.254883H60V60.2549H0V0.254883Z" fill="#F5DE19"/>
<path d="M40.304 47.1292C40.8152 48.1676 41.6095 49.0405 42.5952 49.6471C43.581 50.2537 44.7181 50.5694 45.8754 50.5578C48.2111 50.5578 49.7047 49.3899 49.7047 47.7721C49.7047 45.8435 48.1704 45.1535 45.599 44.0285L44.189 43.4242C40.1176 41.6907 37.4176 39.5199 37.4176 34.9299C37.4176 30.7021 40.6319 27.4814 45.674 27.4814C47.3062 27.3635 48.937 27.7288 50.363 28.5317C51.789 29.3346 52.947 30.5396 53.6926 31.9964L49.2847 34.8142C48.9976 34.0919 48.4977 33.4739 47.8513 33.0422C47.205 32.6106 46.4426 32.3856 45.6654 32.3971C45.3263 32.3631 44.9839 32.4002 44.6599 32.5059C44.336 32.6116 44.0376 32.7836 43.7838 33.011C43.53 33.2384 43.3263 33.5162 43.1858 33.8267C43.0452 34.1371 42.9709 34.4735 42.9676 34.8142C42.9676 36.5049 44.0154 37.1907 46.4347 38.2428L47.8447 38.8471C52.6361 40.9021 55.3447 42.9957 55.3447 47.7035C55.3447 52.7799 51.3569 55.5614 46.0019 55.5614C43.9154 55.6943 41.835 55.2206 40.0117 54.1974C38.1885 53.1742 36.7004 51.6452 35.7269 49.7949L40.304 47.1292ZM20.3861 47.6178C21.2711 49.1885 22.0769 50.5171 24.014 50.5171C25.8654 50.5171 27.0354 49.7928 27.0354 46.9749V27.8028H32.6733V47.0499C32.6733 52.8871 29.2447 55.5442 24.254 55.5442C22.4899 55.6407 20.7379 55.201 19.2283 54.2831C17.7188 53.3652 16.5223 52.012 15.7961 50.4014L20.3861 47.6178Z" fill="#0C0033"/>
</svg>
