<svg fill="none" height="15" viewBox="0 0 20 15" width="20" xmlns="http://www.w3.org/2000/svg"><path d="m2.71196 14.9569c-.51412 0-.95409-.1829-1.3199-.5487-.36644-.3664-.549653-.8067-.549653-1.3208v-11.21735c0-.51413.183213-.954102.549653-1.319912.36581-.366433.80578-.54964972 1.3199-.54964972h14.95644c.5141 0 .9544.18321672 1.3209.54964972.3658.36581.5487.805782.5487 1.319912v11.21735c0 .5141-.1829.9544-.5487 1.3208-.3665.3658-.8068.5487-1.3209.5487zm7.47824-6.54341-7.47824-4.67389v9.3478h14.95644v-9.3478zm0-1.86955 7.4782-4.67389h-14.95644zm-7.47824-2.80434v-1.86955 11.21735z" fill="#1c64f2"/></svg>