<svg width="68" height="61" viewBox="0 0 68 61" fill="none" xmlns="http://www.w3.org/2000/svg">
<path d="M55.7282 19.7021C55.0105 19.4559 54.2868 19.2277 53.5576 19.018C53.6801 18.5175 53.7928 18.023 53.8929 17.5372C55.5362 9.56041 54.4619 3.1341 50.7926 1.01825C47.2746 -1.01014 41.5211 1.10492 35.7104 6.16193C35.1377 6.66121 34.5778 7.17488 34.031 7.70245C33.665 7.35164 33.2926 7.00763 32.9138 6.67061C26.8239 1.2635 20.7198 -1.01541 17.0545 1.1065C13.5395 3.14121 12.4987 9.18239 13.9782 16.7422C14.1253 17.4909 14.2915 18.2358 14.4766 18.9761C13.6125 19.2216 12.7788 19.4829 11.9808 19.7611C4.84091 22.2505 0.28125 26.1516 0.28125 30.1981C0.28125 34.3774 5.17626 38.5693 12.6128 41.1111C13.2157 41.3163 13.8236 41.5065 14.436 41.6814C14.2371 42.4787 14.0605 43.2814 13.9065 44.0886C12.4961 51.5173 13.5975 57.4157 17.1029 59.4375C20.7235 61.5254 26.8002 59.3795 32.7171 54.2071C33.1968 53.7866 33.6661 53.3542 34.1243 52.9103C34.7164 53.4815 35.3242 54.0362 35.9472 54.5735C41.6789 59.5054 47.3394 61.4969 50.8414 59.4696C54.4585 57.3756 55.6342 51.0391 54.1079 43.3299C53.9876 42.726 53.8528 42.125 53.7035 41.5276C54.1303 41.4011 54.5491 41.271 54.9574 41.1356C62.6885 38.5743 67.7186 34.4332 67.7186 30.1981C67.7186 26.1368 63.0117 22.2094 55.7282 19.7021ZM54.0515 38.4012C53.6827 38.5232 53.3044 38.6409 52.9188 38.7555C52.0653 36.0536 50.9136 33.1806 49.504 30.2121C50.849 27.3144 51.9565 24.478 52.786 21.7937C53.4759 21.9934 54.1453 22.2039 54.7907 22.4259C61.0313 24.5744 64.8378 27.7506 64.8378 30.1981C64.8378 32.805 60.7268 36.1892 54.0515 38.4012ZM51.2818 43.8895C51.9567 47.2982 52.0529 50.3803 51.6058 52.7899C51.2044 54.955 50.3967 56.3983 49.3978 56.9765C47.2727 58.2067 42.7278 56.6077 37.8262 52.3897C37.2468 51.8901 36.6813 51.3745 36.1305 50.8434C38.0309 48.7652 39.93 46.3493 41.7834 43.6661C45.0436 43.3768 48.1236 42.9037 50.9167 42.2581C51.0513 42.7989 51.173 43.3429 51.2818 43.8895ZM23.2721 56.7639C21.1958 57.4971 19.542 57.5181 18.5423 56.9418C16.4151 55.715 15.5308 50.9788 16.737 44.626C16.8804 43.8753 17.0446 43.1287 17.2294 42.3871C19.9917 42.9983 23.0493 43.4377 26.3171 43.7027C28.1832 46.3283 30.137 48.7415 32.1062 50.8547C31.6877 51.2597 31.2593 51.6542 30.8214 52.0381C28.2048 54.3251 25.5829 55.9478 23.2721 56.7639ZM13.5448 38.3851C10.2565 37.2611 7.54078 35.8004 5.6794 34.2064C4.00664 32.7741 3.16235 31.3519 3.16235 30.1981C3.16235 27.7424 6.8232 24.6103 12.9292 22.4815C13.6702 22.2234 14.4457 21.9797 15.2505 21.751C16.0945 24.4959 17.2015 27.366 18.5373 30.2682C17.1841 33.2133 16.0613 36.1292 15.2091 38.9065C14.6502 38.7464 14.0952 38.5725 13.5448 38.3851ZM16.8055 16.1888C15.5382 9.71188 16.3798 4.82609 18.498 3.59984C20.754 2.29376 25.7428 4.15593 31.0011 8.82492C31.344 9.13007 31.6813 9.4414 32.0129 9.75877C30.0535 11.8628 28.1176 14.2581 26.2681 16.8681C23.0964 17.1621 20.0604 17.6342 17.2691 18.2667C17.0972 17.5781 16.9426 16.8854 16.8055 16.189V16.1888ZM45.895 23.3719C45.2357 22.2331 44.552 21.1086 43.8442 19.9992C45.9959 20.2714 48.0575 20.6325 49.9934 21.074C49.4123 22.937 48.6879 24.8845 47.8352 26.8813C47.2119 25.6987 46.565 24.5287 45.895 23.3719ZM34.0323 11.8177C35.3611 13.2573 36.6919 14.8645 38.0009 16.6084C35.3455 16.483 32.6858 16.4825 30.0304 16.6068C31.3406 14.879 32.6828 13.2739 34.0323 11.8177ZM22.0936 23.3917C21.4319 24.5391 20.7971 25.7018 20.1898 26.8789C19.351 24.8892 18.6332 22.9328 18.0471 21.0435C19.9711 20.613 22.023 20.2611 24.1609 19.994C23.4453 21.1101 22.756 22.2429 22.0936 23.3914V23.3917ZM24.2223 40.6072C22.0135 40.3606 19.9308 40.0268 18.0073 39.608C18.6026 37.685 19.3363 35.6869 20.1932 33.6545C20.803 34.8325 21.4404 35.9959 22.1049 37.1439C22.7882 38.324 23.4958 39.48 24.2223 40.6072ZM34.1119 48.7813C32.7463 47.3082 31.3844 45.6784 30.0543 43.9256C31.3457 43.9761 32.662 44.0019 33.9999 44.0019C35.3745 44.0019 36.7333 43.9711 38.0707 43.9116C36.7575 45.696 35.4317 47.3282 34.1119 48.7813ZM47.8623 33.5507C48.7637 35.6055 49.5235 37.593 50.1267 39.4831C48.1715 39.9294 46.0604 40.2887 43.8361 40.5555C44.5488 39.4256 45.2391 38.2815 45.9063 37.1241C46.5848 35.9477 47.2369 34.7562 47.8623 33.5507ZM43.4109 35.6848C42.3894 37.4593 41.3104 39.2002 40.1757 40.9046C38.1204 41.0501 36.0605 41.1224 33.9999 41.1214C31.9012 41.1214 29.8599 41.056 27.8942 40.9285C26.7299 39.2281 25.6304 37.4842 24.598 35.7006H24.5982C23.5706 33.9264 22.6108 32.1139 21.7208 30.2668C22.6085 28.4194 23.5655 26.606 24.5895 24.8305L24.5893 24.8308C25.6129 23.0548 26.7037 21.3183 27.8592 19.6252C29.8647 19.4734 31.9212 19.3944 33.9997 19.3944H33.9999C36.0879 19.3944 38.1471 19.4742 40.152 19.627C41.2958 21.3177 42.3796 23.0481 43.4014 24.8152C44.4289 26.5868 45.3985 28.3914 46.3086 30.226C45.4078 32.0794 44.4413 33.9002 43.4109 35.6848ZM49.3538 3.51396C51.6119 4.81634 52.4902 10.0683 51.0714 16.9556C50.9807 17.395 50.8791 17.8426 50.7684 18.2964C47.9703 17.6505 44.9322 17.1703 41.7513 16.8718C39.8983 14.2331 37.9782 11.834 36.0507 9.75718C36.5559 9.27024 37.0731 8.79593 37.6018 8.33468C42.5806 4.00209 47.2337 2.29139 49.3538 3.51396ZM33.9999 24.1761C37.3257 24.1761 40.0219 26.8723 40.0219 30.1981C40.0219 33.5239 37.3257 36.22 33.9999 36.22C30.6742 36.22 27.978 33.5239 27.978 30.1981C27.978 26.8723 30.6742 24.1761 33.9999 24.1761Z" fill="#00D8FF"/>
</svg>
