<svg width="8" height="19" viewBox="0 0 8 19" fill="none" xmlns="http://www.w3.org/2000/svg">
<path d="M6.62455 0.497073C4.98387 0.396621 3.33731 0.456033 1.70814 0.674468C0.973212 1.01659 1.8982 7.82099 1.8982 7.82099L0.238281 9.34152L1.79685 10.8494C1.79685 10.8494 1.70814 17.7425 2.69649 18.3127C3.68483 18.8829 7.03003 18.3127 7.03003 18.3127V16.6021C5.96166 16.7057 4.88356 16.6373 3.83688 16.3993C3.38072 16.0319 3.43143 10.0638 3.43143 10.0638L2.69649 9.25283L3.43143 8.37852C3.43143 8.37852 3.29203 4.09567 3.36805 2.91726C3.43141 2.13164 6.62455 2.08097 6.62455 2.08097V0.497073Z" fill="white"/>
</svg>
